<svg xmlns="http://www.w3.org/2000/svg" viewBox="0 0 1200 900" preserveAspectRatio="xMidYMid slice" role="img" aria-label="City">
  <defs>
    <linearGradient id="fb-bg" x1="0%" y1="0%" x2="0%" y2="100%">
      <stop offset="0%" stop-color="#1A1A2E"/>
      <stop offset="60%" stop-color="#22223D"/>
      <stop offset="100%" stop-color="#0F0F1F"/>
    </linearGradient>
  </defs>
  <rect width="1200" height="900" fill="url(#fb-bg)"/>
  <g opacity="0.32" fill="#000000">
    <rect x="100" y="600" width="70" height="240"/>
    <rect x="190" y="520" width="90" height="320"/>
    <rect x="300" y="460" width="70" height="380"/>
    <rect x="390" y="560" width="50" height="280"/>
    <rect x="460" y="400" width="120" height="440"/>
    <polygon points="600,400 640,360 680,400 680,840 600,840"/>
    <rect x="700" y="480" width="80" height="360"/>
    <rect x="800" y="440" width="60" height="400"/>
    <rect x="880" y="540" width="100" height="300"/>
    <rect x="1000" y="580" width="80" height="260"/>
  </g>
  <rect x="0" y="840" width="1200" height="60" fill="#000000" fill-opacity="0.4"/>
  <g transform="translate(600 440)">
    <circle cx="0" cy="0" r="140" fill="none" stroke="#E2B84A" stroke-width="10"/>
    <circle cx="0" cy="0" r="28" fill="#E2B84A"/>
  </g>
  <text x="600" y="720" font-family="Manrope, 'Helvetica Neue', system-ui, sans-serif" font-size="72" font-weight="800" fill="#FFFFFF" fill-opacity="0.75" letter-spacing="4" text-anchor="middle">EVENTLINQS</text>
</svg>
